<svg xmlns="http://www.w3.org/2000/svg" viewBox="0 0 48 48">
  <path fill="#25D366" d="M4 24C4 12.954 12.954 4 24 4s20 8.954 20 20-8.954 20-20 20a19.9 19.9 0 0 1-9.184-2.184L4 44l2.184-10.816A19.9 19.9 0 0 1 4 24z"></path>
  <path fill="#fff" d="M35.76 28.064c-.56-.28-3.32-1.64-3.84-1.84-.52-.2-.9-.28-1.28.28-.38.56-1.48 1.84-1.8 2.22-.32.38-.66.42-1.22.14-.56-.28-2.36-.87-4.5-2.78-1.66-1.48-2.78-3.32-3.1-3.88-.32-.56-.04-.86.24-1.14.24-.24.56-.62.84-.92.28-.3.38-.52.58-.86.2-.34.1-.64-.04-.92-.14-.28-1.28-3.08-1.76-4.22-.46-1.1-.92-.94-1.28-.96-.32-.02-.7-.02-1.08-.02s-.98.14-1.48.7c-.5.56-1.94 1.9-1.94 4.64 0 2.74 1.98 5.38 2.26 5.74.28.36 3.9 6 9.42 8.4 1.31.56 2.33.9 3.12 1.14 1.31.42 2.5.36 3.44.22 1.05-.16 3.32-1.36 3.78-2.68.46-1.32.46-2.46.32-2.68-.14-.22-.5-.36-1.06-.64z"></path>
</svg>
